<mxfile host="65bd71144e" modified="2021-02-17T13:12:25.412Z" agent="5.0 (Macintosh; Intel Mac OS X 10_15_6) AppleWebKit/537.36 (KHTML, like Gecko) Code/1.53.0 Chrome/87.0.4280.141 Electron/11.2.1 Safari/537.36" etag="PVbKRRkkPEdiedMGVw7C" version="14.2.4" type="embed">
    <diagram id="SSYP4WCqlSc0OhF9e91J" name="Page-1">
        <mxGraphModel dx="2353" dy="1115" grid="1" gridSize="10" guides="1" tooltips="1" connect="1" arrows="1" fold="1" page="1" pageScale="1" pageWidth="827" pageHeight="1169" math="0" shadow="0">
            <root>
                <mxCell id="0"/>
                <mxCell id="1" parent="0"/>
                <mxCell id="6" style="edgeStyle=orthogonalEdgeStyle;rounded=0;orthogonalLoop=1;jettySize=auto;html=1;exitX=0.5;exitY=1;exitDx=0;exitDy=0;entryX=0.352;entryY=-0.017;entryDx=0;entryDy=0;entryPerimeter=0;" parent="1" source="2" target="4" edge="1">
                    <mxGeometry relative="1" as="geometry"/>
                </mxCell>
                <mxCell id="2" value="プレゼンテーション層" style="rounded=0;whiteSpace=wrap;html=1;" parent="1" vertex="1">
                    <mxGeometry x="-370" y="90" width="220" height="60" as="geometry"/>
                </mxCell>
                <mxCell id="3" value="インフラ層" style="rounded=0;whiteSpace=wrap;html=1;" parent="1" vertex="1">
                    <mxGeometry x="-120" y="90" width="220" height="60" as="geometry"/>
                </mxCell>
                <mxCell id="4" value="ユースケース層&lt;br&gt;（アプリケーション層）" style="rounded=0;whiteSpace=wrap;html=1;" parent="1" vertex="1">
                    <mxGeometry x="-370" y="230" width="310" height="60" as="geometry"/>
                </mxCell>
                <mxCell id="5" value="ドメイン層" style="rounded=0;whiteSpace=wrap;html=1;" parent="1" vertex="1">
                    <mxGeometry x="-370" y="370" width="470" height="60" as="geometry"/>
                </mxCell>
                <mxCell id="8" value="" style="endArrow=classic;html=1;entryX=0.23;entryY=-0.05;entryDx=0;entryDy=0;entryPerimeter=0;" parent="1" target="5" edge="1">
                    <mxGeometry width="50" height="50" relative="1" as="geometry">
                        <mxPoint x="-262" y="294" as="sourcePoint"/>
                        <mxPoint x="30" y="320" as="targetPoint"/>
                    </mxGeometry>
                </mxCell>
                <mxCell id="9" value="" style="endArrow=block;endSize=16;endFill=0;html=1;" parent="1" edge="1">
                    <mxGeometry width="160" relative="1" as="geometry">
                        <mxPoint x="-90" y="150" as="sourcePoint"/>
                        <mxPoint x="-90" y="230" as="targetPoint"/>
                    </mxGeometry>
                </mxCell>
                <mxCell id="10" value="" style="endArrow=block;endSize=16;endFill=0;html=1;entryX=0.898;entryY=-0.05;entryDx=0;entryDy=0;entryPerimeter=0;" parent="1" target="5" edge="1">
                    <mxGeometry width="160" relative="1" as="geometry">
                        <mxPoint x="50" y="150" as="sourcePoint"/>
                        <mxPoint x="50" y="230" as="targetPoint"/>
                    </mxGeometry>
                </mxCell>
                <mxCell id="13" value="&lt;div style=&quot;text-align: left&quot;&gt;&lt;span&gt;・エンドポイント定義&lt;/span&gt;&lt;/div&gt;&lt;div style=&quot;text-align: left&quot;&gt;&lt;span&gt;・HTTP Requestで渡された値とユースケース層に渡す値のマッピング&lt;/span&gt;&lt;/div&gt;&lt;div style=&quot;text-align: left&quot;&gt;&lt;span&gt;・入力値のvalidation(一部)&lt;/span&gt;&lt;/div&gt;" style="shape=callout;whiteSpace=wrap;html=1;perimeter=calloutPerimeter;base=20;size=30;position=0.75;position2=1;" parent="1" vertex="1">
                    <mxGeometry x="-800" y="20" width="420" height="110" as="geometry"/>
                </mxCell>
                <mxCell id="14" value="&lt;div style=&quot;text-align: left&quot;&gt;・リポジトリ（実装クラス）&lt;/div&gt;&lt;div style=&quot;text-align: left&quot;&gt;　- ドメインオブジェクトの永続化/検索の実装&lt;/div&gt;" style="shape=callout;whiteSpace=wrap;html=1;perimeter=calloutPerimeter;base=20;size=30;position=0.07;position2=0;" parent="1" vertex="1">
                    <mxGeometry x="110" y="40" width="300" height="90" as="geometry"/>
                </mxCell>
                <mxCell id="15" value="&lt;div style=&quot;text-align: left&quot;&gt;・ドメインオブジェクト（エンティティ、値オブジェクト&lt;span&gt;）&lt;/span&gt;&lt;/div&gt;&lt;div style=&quot;text-align: left&quot;&gt;&amp;nbsp; &amp;nbsp;- ドメイン知識の表現（ルール/制約）&lt;/div&gt;&lt;div style=&quot;text-align: left&quot;&gt;&amp;nbsp; &amp;nbsp;- ドメインサービス&lt;/div&gt;&lt;div style=&quot;text-align: left&quot;&gt;&amp;nbsp; &amp;nbsp;- リポジトリ（インターフェース）&lt;/div&gt;&lt;div style=&quot;text-align: left&quot;&gt;&amp;nbsp; &amp;nbsp;- リポジトリの仕様定義&lt;/div&gt;" style="shape=callout;whiteSpace=wrap;html=1;perimeter=calloutPerimeter;base=20;size=30;position=0.07;position2=0;" parent="1" vertex="1">
                    <mxGeometry x="110" y="260" width="400" height="130" as="geometry"/>
                </mxCell>
                <mxCell id="16" value="&lt;div style=&quot;text-align: left&quot;&gt;・ユースケースの実現&lt;/div&gt;&lt;div style=&quot;text-align: left&quot;&gt;&amp;nbsp; &amp;nbsp;- ドメインオブジェクトの生成、使用、永続化依頼&lt;/div&gt;&lt;div style=&quot;text-align: left&quot;&gt;&amp;nbsp; &amp;nbsp;- ドメインオブジェクトからプレゼンテーション層に渡す値への変換&lt;/div&gt;" style="shape=callout;whiteSpace=wrap;html=1;perimeter=calloutPerimeter;base=20;size=30;position=0.75;position2=1;" parent="1" vertex="1">
                    <mxGeometry x="-800" y="170" width="420" height="110" as="geometry"/>
                </mxCell>
            </root>
        </mxGraphModel>
    </diagram>
</mxfile>